<svg xmlns="http://www.w3.org/2000/svg" width="43" height="49" viewBox="0 0 43 49" fill="none">
  <path d="M28.6935 48.9991C28.5428 48.7218 28.2516 48.4337 28.2725 48.1698C28.3077 47.7215 28.6984 47.543 29.1588 47.559C29.6202 47.5749 30.0827 47.5626 30.6089 47.5626C30.6089 46.89 30.6079 46.2272 30.6092 45.5643C30.6102 45.1193 30.8954 44.7975 31.2972 44.7839C31.7195 44.7692 32.0402 45.101 32.0448 45.5756C32.0513 46.2255 32.0464 46.8755 32.0464 47.5625H34.9912C36.4914 47.5625 37.992 47.564 39.4922 47.562C40.3297 47.5607 40.7608 47.0157 40.5691 46.1911C40.2546 44.8387 40.0007 43.467 39.5956 42.1422C39.013 40.2373 37.8769 38.6889 36.2566 37.5052C34.8713 36.4931 33.3144 35.9939 31.6233 35.7647C30.3869 35.597 29.1626 35.2971 27.957 34.9684C27.4953 34.8423 27.2049 34.9468 26.9053 35.2281C25.7028 36.3573 24.246 36.9198 22.6367 37.1204C21.8908 37.2135 21.129 37.3604 20.3905 37.2961C18.3422 37.1176 16.3972 36.6062 14.8958 35.0565C14.6978 34.8521 14.5342 34.8336 14.2395 34.9009C12.8084 35.2289 11.3649 35.5038 9.92326 35.7852C8.29873 36.1024 6.782 36.6333 5.4597 37.6891C3.99492 38.8586 2.96761 40.3157 2.43005 42.0901C2.02366 43.432 1.69726 44.8022 1.41281 46.1759C1.22325 47.0915 1.70037 47.5836 2.61527 47.5725C4.94532 47.544 7.27584 47.563 9.60602 47.563H10.1117C10.1117 46.8935 10.1091 46.2597 10.1125 45.6257C10.115 45.1121 10.4219 44.7674 10.8529 44.7844C11.2753 44.8011 11.5477 45.1244 11.5484 45.6123C11.5492 46.2474 11.5487 46.8824 11.5487 47.563H12.089C16.5264 47.563 20.9636 47.5625 25.4009 47.5635C26.0359 47.5638 26.3971 47.8819 26.2836 48.4167C26.2376 48.634 25.9809 48.8066 25.8199 48.9995H1.77926C0.939742 48.6417 0.187136 48.1392 0.0395116 47.1874C-0.0546268 46.5791 0.0320526 45.9148 0.167086 45.3044C0.466989 43.9505 0.794666 42.5979 1.20928 41.2753C1.81088 39.357 3.02436 37.8562 4.56223 36.5754C5.65637 35.6641 6.90769 35.0813 8.23512 34.6784C9.14766 34.4014 10.1253 34.3466 11.0649 34.1496C12.1508 33.9217 13.2502 33.7139 14.2949 33.3556C14.664 33.2291 14.8899 32.685 15.2556 32.2414H14.7479C12.1941 32.2406 9.64005 32.2403 7.0862 32.2388C5.72736 32.238 4.71144 31.5526 3.90326 30.5487C3.25099 29.7385 2.89504 28.764 3.04833 27.7269C3.15661 26.9941 3.38424 26.2357 3.742 25.5903C5.25387 22.864 6.82795 20.1718 8.39124 17.4743C10.1029 14.5206 11.8301 11.5758 13.5462 8.62475C14.8628 6.36028 16.1481 4.07685 17.4948 1.83022C18.289 0.505356 20.0666 -0.152038 21.483 0.0297596C23.3946 0.275394 24.4072 1.46807 25.2513 2.99765C26.1351 4.59926 27.0746 6.17005 27.9896 7.75467C28.8579 9.2591 29.7262 10.7632 30.5933 12.2684C31.8477 14.4452 33.1005 16.6229 34.3546 18.7996C35.4005 20.6144 36.4532 22.4254 37.4913 24.2447C37.9198 24.9959 38.4165 25.7287 38.7076 26.5333C39.2272 27.9693 39.0145 29.3597 38.0549 30.5843C37.1104 31.7893 35.8539 32.2757 34.3298 32.252C31.8297 32.2131 29.3286 32.2414 26.8643 32.2414C27.2179 33.5606 28.38 33.6324 29.4119 33.8582C30.7571 34.1525 32.1297 34.3256 33.4678 34.6458C35.2106 35.063 36.7353 35.9182 38.0591 37.144C39.456 38.4376 40.4548 39.9782 40.9713 41.8005C41.3998 43.3124 41.8239 44.8376 42.069 46.3855C42.2434 47.4864 41.489 48.5592 40.2765 48.9069C40.2107 48.9257 40.152 48.9684 40.0898 49C36.2913 48.999 32.492 48.999 28.6927 48.999L28.6935 48.9991ZM20.8975 30.8029C25.5256 30.8029 30.1539 30.8039 34.7822 30.8021C35.909 30.8018 36.9767 29.9186 37.3254 28.995C37.7431 27.889 37.4178 26.9417 36.8614 25.9931C35.2771 23.2914 33.7086 20.5805 32.1425 17.8685C30.7626 15.4785 29.3983 13.0794 28.0195 10.6888C26.5935 8.21651 25.1498 5.75451 23.7321 3.27796C23.1791 2.31188 22.498 1.6321 21.301 1.47236C20.1744 1.32189 19.037 1.98445 18.6474 2.65243C17.491 4.63396 16.3374 6.61701 15.189 8.60316C14.1334 10.4286 13.0874 12.2596 12.0341 14.0865C10.8186 16.1953 9.60042 18.3026 8.38282 20.4099C7.327 22.2374 6.27711 24.0684 5.20989 25.8892C4.70808 26.7454 4.26726 27.5896 4.55247 28.6444C4.85135 29.7496 5.883 30.8122 7.25264 30.8077C11.8011 30.7936 16.3498 30.8026 20.8977 30.8034L20.8975 30.8029ZM15.8035 33.9477C18.3064 36.5995 23.9176 36.4133 26.1662 33.9323C25.8889 33.4902 25.5911 33.0689 25.3534 32.6159C25.2119 32.3469 25.0697 32.2301 24.7495 32.2319C22.2283 32.2471 19.7072 32.2438 17.1859 32.235C16.9379 32.2342 16.798 32.2913 16.6722 32.5269C16.4119 33.0141 16.0981 33.4721 15.8032 33.9477L15.8035 33.9477Z" fill="black"/>
  <path d="M7.54869 27.8352C7.80822 27.8352 8.04562 27.828 8.28253 27.8368C8.77894 27.855 9.06293 28.1333 9.05516 28.5829C9.04821 28.9934 8.74316 29.2663 8.28095 29.2712C7.99365 29.2743 7.70635 29.2725 7.41931 29.2717C6.2796 29.2681 5.65025 28.2278 6.20401 27.2305C6.69373 26.3485 7.21973 25.4867 7.72489 24.6129C8.77249 22.8009 9.81652 20.9866 10.8628 19.1736C12.0796 17.065 13.2975 14.9569 14.5146 12.8484C15.561 11.0356 16.607 9.2223 17.6528 7.40926C18.3887 6.13378 19.1304 4.86186 19.8578 3.58151C20.3954 2.63551 21.7097 2.85853 22.1269 3.58819C23.1511 5.37937 24.2043 7.15382 25.2406 8.93809C26.1593 10.5199 27.0714 12.1058 27.9857 13.69C28.8538 15.1941 29.7219 16.698 30.5889 18.2029C31.8428 20.3792 33.0946 22.5566 34.3495 24.7323C34.8379 25.579 35.3588 26.408 35.8174 27.2705C36.3524 28.2766 35.582 29.2855 34.6178 29.2828C27.0377 29.2628 19.457 29.2715 11.8763 29.2723C11.5715 29.2723 11.3086 29.2504 11.1191 28.931C10.9359 28.6226 10.9609 28.3546 11.1697 28.1257C11.2999 27.9832 11.5216 27.9083 11.7158 27.8456C11.8462 27.8034 12.0005 27.835 12.144 27.835C19.4054 27.8348 26.6661 27.835 33.9281 27.835H34.4714C34.0915 27.1661 33.7383 26.5385 33.38 25.9142C32.5848 24.5286 31.7892 23.1433 30.9891 21.7606C29.1714 18.6199 27.3491 15.482 25.5317 12.3415C24.1029 9.8723 22.6803 7.40003 21.2487 4.93262C21.1862 4.82511 21.0637 4.75232 20.9691 4.66333C20.8937 4.75207 20.8032 4.83206 20.7453 4.93109C19.2458 7.50496 17.7434 10.0767 16.2548 12.6567C14.5348 15.6377 12.8314 18.628 11.114 21.6102C9.96862 23.5992 8.81172 25.5815 7.66174 27.5677C7.61699 27.6448 7.59127 27.7328 7.54857 27.8354L7.54869 27.8352Z" fill="black"/>
  <path d="M20.9596 11.4319C21.6371 11.4731 22.3162 11.4993 22.9921 11.5593C23.7135 11.6233 24.2226 12.3005 24.036 13.2069C23.9447 13.6503 23.9391 14.112 23.9051 14.5663C23.8385 15.4583 23.7873 16.3512 23.7148 17.2427C23.6654 17.8495 23.6014 18.4557 23.5234 19.0594C23.4661 19.5038 22.804 20.0396 22.2868 20.0486C21.4107 20.064 20.5342 20.0663 19.6584 20.0475C19.0838 20.0352 18.5352 19.5429 18.4559 18.9336C18.3572 18.173 18.3281 17.4035 18.2553 16.639C18.1707 15.7524 18.0532 14.8686 17.985 13.9808C17.9451 13.4589 17.9199 12.925 17.9863 12.4093C18.0539 11.8838 18.6854 11.4859 19.3322 11.4738C19.8739 11.4638 20.4158 11.4718 20.9575 11.4718C20.958 11.4586 20.9588 11.4453 20.9596 11.4319L20.9596 11.4319ZM22.6392 12.9955C22.6125 12.9705 22.586 12.9456 22.5592 12.9204H19.5015C19.4748 12.9453 19.448 12.97 19.4213 12.995C19.5602 14.8438 19.699 16.6926 19.8369 18.5265H22.1353C22.1839 18.0416 22.2395 17.5771 22.2749 17.1113C22.3449 16.1867 22.3953 15.2608 22.4707 14.3366C22.5072 13.888 22.5818 13.4425 22.6392 12.9955Z" fill="black"/>
  <path d="M23.9081 23.9603C23.9727 25.6254 22.4686 26.8484 21.0243 26.8785C19.4471 26.9112 18.0747 25.5372 18.0703 23.9394C18.0662 22.3725 19.291 21.0939 20.8137 21.0345C22.6049 20.9643 23.9675 22.3208 23.9081 23.9603ZM22.4714 23.923C22.6069 23.1434 21.7088 22.4752 21.0387 22.4594C20.0567 22.4366 19.5428 23.2164 19.5076 23.9242C19.4698 24.6791 20.184 25.4271 20.9148 25.441C21.7764 25.4577 22.467 24.7844 22.4714 23.923Z" fill="black"/>
</svg>