<?xml version="1.0" encoding="UTF-8"?>
<svg width="1200pt" height="1200pt" version="1.1" viewBox="0 0 1200 1200" xmlns="http://www.w3.org/2000/svg">
 <path d="m657.2 336.7c0-2.3672-0.96484-4.5195-2.4648-6.0234-1.5742-1.5742-3.7266-2.5352-6.0938-2.5352h-97.328c-2.3672 0-4.5195 0.96484-6.0234 2.4648-1.5742 1.5742-2.5352 3.7266-2.5352 6.0938v136.25c0 2.3672 0.96484 4.5352 2.4961 6.0664s3.6992 2.4961 6.0664 2.4961h97.328c2.3672 0 4.5352-0.96484 6.0664-2.4961 1.5859-1.5859 2.4961-3.8125 2.4961-6.0664v-136.25zm242.66 229.16c-13.152 0.027344-25.824-6.1641-34.91-16.074-8.4609-9.2266-14.004-21.812-14.004-35.602 0-14.188 5.8398-27.113 15.18-36.48 9.3398-9.4102 22.309-15.25 36.539-15.25l22.707 0.097656c14.23-0.070312 27.184 5.7383 36.539 15.094 9.3398 9.3398 15.18 22.309 15.18 36.539 0 14.246-5.8398 27.211-15.18 36.555-9.3398 9.3398-22.309 15.18-36.539 15.18zm-8.4609-40.395c2.4805 2.707 5.5859 4.4219 8.4609 4.4219l25.512 0.097656c4.293-0.070313 8.2344-1.8555 11.082-4.707 2.8477-2.8477 4.6328-6.7891 4.6328-11.098 0-4.293-1.7852-8.2344-4.6328-11.082-2.8359-2.8359-6.7891-4.6211-11.082-4.6211l-22.707-0.097656c-4.293 0.070313-8.2344 1.8555-11.082 4.707-2.8633 2.8047-4.6328 6.7734-4.6328 11.098 0 4.3672 1.7734 8.3633 4.4492 11.281zm-619.63 40.395c-13.152 0.027344-25.824-6.1641-34.91-16.074-8.4492-9.1992-13.988-21.812-13.988-35.602 0-14.246 5.8398-27.211 15.18-36.555 9.3398-9.3398 22.309-15.18 36.539-15.18l22.707 0.097656c14.23-0.070313 27.199 5.7695 36.539 15.109s15.18 22.281 15.18 36.523c0 14.172-5.8242 27.113-15.18 36.48-9.3398 9.4102-22.309 15.25-36.539 15.25l-25.527-0.058594zm-8.4609-40.395c2.4961 2.7227 5.5977 4.4219 8.4609 4.4219l25.527 0.097656c4.293-0.070313 8.2344-1.8555 11.082-4.707 2.8633-2.8047 4.6328-6.7617 4.6328-11.098 0-4.2812-1.7852-8.2188-4.6328-11.07-2.8477-2.8477-6.7891-4.6328-11.082-4.6328l-22.707-0.097656c-4.293 0.070313-8.2344 1.8555-11.082 4.707-2.8477 2.8477-4.6328 6.7891-4.6328 11.098 0 4.3672 1.7734 8.375 4.4375 11.281zm356.8-233.32c-46.969-63.863-93.969-127.69-140.97-191.55-5.8555-7.9922-4.125-19.246 3.8711-25.102 7.9922-5.8555 19.246-4.125 25.102 3.8711l91.871 124.84 91.855-124.84c5.8555-7.9922 17.105-9.7227 25.102-3.8711 7.9922 5.8555 9.7227 17.105 3.8711 25.102l-98.531 133.91 45.723 62.137c3.5 1.6992 6.7617 3.8711 9.6797 6.3906l164.59-223.67c5.8555-7.9922 17.105-9.7227 25.102-3.8711 7.9922 5.8555 9.7227 17.105 3.8711 25.102l-178.05 241.95v27.809h350.65c18.086 0 34.609 7.4258 46.586 19.391 12.047 12.074 19.461 28.586 19.461 46.66v625.54c0 18.086-7.4258 34.609-19.391 46.586-12.074 12.047-28.586 19.461-46.66 19.461h-887.7c-18.113 0-34.609-7.4258-46.586-19.391-12.047-12.074-19.461-28.559-19.461-46.66v-625.54c0-18.113 7.4258-34.609 19.391-46.586 12.074-12.047 28.559-19.461 46.66-19.461h350.61v-27.809l-178.06-241.95c-5.8555-7.9922-4.125-19.246 3.8711-25.102 7.9922-5.8555 19.246-4.125 25.102 3.8711l164.61 223.67c7.8789-6.8047 18.059-10.887 29.043-10.887h68.797zm-113.36 114.21h-350.61c-8.293 0-15.816 3.375-21.203 8.7734-5.4727 5.457-8.8438 12.984-8.8438 21.273v625.54c0 8.293 3.375 15.816 8.7734 21.203 5.457 5.4727 12.984 8.8438 21.273 8.8438h887.7c8.2773 0 15.816-3.375 21.203-8.7734 5.4727-5.457 8.8438-12.996 8.8438-21.273v-625.54c0-8.2773-3.375-15.816-8.7734-21.203-5.457-5.4727-12.996-8.8438-21.273-8.8438h-350.65v56.098h9.2539c14.23 0 27.199 5.8398 36.539 15.18s15.18 22.309 15.18 36.555c0 14.23-5.8398 27.199-15.18 36.539-9.3555 9.3555-22.309 15.164-36.539 15.164h-204.95c-14.23 0-27.184-5.8125-36.539-15.164-9.3398-9.3398-15.18-22.309-15.18-36.539 0-14.246 5.8398-27.211 15.18-36.555 9.3398-9.3398 22.309-15.18 36.539-15.18h9.2422zm178.36 92.098c-1.4883 2.1133-3.1445 4.0977-4.9766 5.9258-8.1367 8.1055-19.262 13.141-31.492 13.141h-97.328c-12.23 0-23.359-5.0312-31.422-13.066-1.8438-1.8555-3.5273-3.8555-5.0312-5.9961h-17.348c-4.293 0-8.2344 1.7852-11.082 4.6328-2.8477 2.8477-4.6328 6.7891-4.6328 11.098 0 4.293 1.7852 8.2344 4.6328 11.082 2.8359 2.8359 6.7891 4.6211 11.082 4.6211h204.95c4.293 0 8.25-1.7852 11.082-4.6211 2.8477-2.8477 4.6328-6.7891 4.6328-11.082 0-4.3086-1.7852-8.25-4.6328-11.098-2.8477-2.8477-6.7891-4.6328-11.082-4.6328h-17.348zm17.531 221.52c-9.9336 0-18-8.0664-18-18s8.0664-18 18-18h148.73c9.9336 0 18 8.0664 18 18s-8.0664 18-18 18zm0 79.684c-9.9336 0-18-8.0664-18-18 0-9.9336 8.0664-18 18-18h297.48c9.9336 0 18 8.0664 18 18 0 9.9336-8.0664 18-18 18zm0 79.754c-9.9336 0-18-8.0664-18-18s8.0664-18 18-18h297.48c9.9336 0 18 8.0664 18 18s-8.0664 18-18 18zm0 79.684c-9.9336 0-18-8.0664-18-18 0-9.9336 8.0664-18 18-18h297.48c9.9336 0 18 8.0664 18 18 0 9.9336-8.0664 18-18 18zm-288.6-148.31c29.184 0 55.871 8.418 75.418 22.012 21.43 14.926 34.727 36.156 34.727 60.109 0 23.938-13.281 45.184-34.727 60.109-19.547 13.594-46.234 22.012-75.418 22.012-29.195 0-55.898-8.418-75.418-22.012-21.457-14.926-34.727-36.156-34.727-60.109 0-23.953 13.293-45.184 34.727-60.109 19.547-13.594 46.234-22.012 75.418-22.012zm54.895 51.547c-13.789-9.5938-33.195-15.547-54.895-15.547-21.684 0-41.09 5.9531-54.895 15.547-11.863 8.2617-19.246 19.121-19.246 30.57 0 11.438 7.3711 22.309 19.246 30.57 13.789 9.5938 33.195 15.547 54.895 15.547s41.102-5.9531 54.895-15.547c11.879-8.2773 19.246-19.133 19.246-30.57 0-11.453-7.3828-22.309-19.246-30.57zm-54.895-194.27c19.051 0 36.367 7.7656 48.941 20.309 13.055 13.055 20.383 30.543 20.383 49.012 0 19.051-7.7656 36.383-20.309 48.953-13.055 13.055-30.543 20.383-49.012 20.383-18.512 0-36-7.3555-49.066-20.422-12.516-12.559-20.27-29.879-20.27-48.914 0-19.133 7.7656-36.48 20.309-49.027 12.527-12.527 29.891-20.297 49.027-20.297zm23.586 45.723c-5.9961-6.0078-14.344-9.7227-23.586-9.7227-9.1992 0-17.562 3.7422-23.57 9.75-6.0234 6.0234-9.7656 14.371-9.7656 23.57 0 9.2422 3.7148 17.602 9.6953 23.57 6.0391 6.0508 14.398 9.7656 23.641 9.7656 9.2422 0 17.59-3.7148 23.555-9.6953 6.0508-6.0391 9.7656-14.398 9.7656-23.641 0-9.2422-3.7148-17.59-9.7383-23.598zm-23.586-106.57c59.133 0 112.71 24.008 151.48 62.773 38.836 38.848 62.844 92.426 62.844 151.55 0 59.133-24.008 112.71-62.773 151.48-38.848 38.836-92.426 62.844-151.55 62.844-59.172 0-112.78-23.996-151.55-62.773-38.777-38.777-62.773-92.383-62.773-151.55 0-54.723 23.145-115.1 63.836-152.54 38.707-38.195 91.871-61.797 150.49-61.797zm126.13 88.199c-32.246-32.23-76.863-52.199-126.13-52.199-48.828 0-93.078 19.617-125.27 51.336-34.215 36.539-53.066 76.152-53.066 126.99 0 49.238 19.969 93.84 52.23 126.1 32.258 32.258 76.863 52.23 126.1 52.23 49.266 0 93.883-19.969 126.13-52.199 32.23-32.246 52.199-76.863 52.199-126.13s-19.969-93.883-52.199-126.13z"/>
</svg>
