<svg xmlns="http://www.w3.org/2000/svg" viewBox="0 0 481.84 116.08"><defs><style>.cls-1{fill:#231f20}</style></defs><g id="Layer_2" data-name="Layer 2"><g id="Layer_1-2" data-name="Layer 1"><path class="cls-1" d="M481.84 58a58 58 0 11-58-58 58 58 0 0158 58"/><path d="M404.14 75.9l.69-3.68c.11-.8.18-1.73.23-2.81l1.44-.26.84 2.14a3.46 3.46 0 001.77.63 4.27 4.27 0 002.29-.62 17.89 17.89 0 004.12-4.2c.84-1.08 2.41-3.49 4.73-7.22-1-7.17-2.16-11.69-3.36-13.55a2.77 2.77 0 00-2.43-1.33 4.53 4.53 0 00-2 .46 10.93 10.93 0 00-2.52 2.08l-1 1-1.32-.78 4.42-6.3a7.51 7.51 0 012-1 8.71 8.71 0 012.31-.31 5.88 5.88 0 015.45 3.28c.91 1.62 1.64 5 2.22 10.31l4.12-6.25a32.53 32.53 0 013.95-4.76 10.11 10.11 0 012.91-2.16 6 6 0 012.4-.57 4.71 4.71 0 012.29.63c-.43 2-.8 4.13-1.16 6.41l-1 .22a3.77 3.77 0 00-1-1.33 2.3 2.3 0 00-1.3-.32 4.9 4.9 0 00-2.32.58 12.89 12.89 0 00-3.32 3c-.78.91-2.42 3.17-4.93 6.76.83 5.05 1.45 8.39 1.84 10 .67 2.63 1.42 4.41 2.29 5.31a2.46 2.46 0 001.83.86 5.37 5.37 0 002.16-.5 24.74 24.74 0 003.62-2.38l.85 1.33a49.06 49.06 0 01-7.4 5.57 5.59 5.59 0 01-2.73.78q-2.4 0-3.79-2.93t-2.51-11.55q-6.09 10.13-9.51 12.92a6.32 6.32 0 01-4.08 1.56 4.88 4.88 0 01-3-1" fill="#fff"/><path class="cls-1" d="M29.29 60.21a11.68 11.68 0 018.76 11.64c0 7.45-5.31 14.06-17.3 14.06H0V37.67h20.81c8.69 0 14.69 5.86 14.69 12.54a10.34 10.34 0 01-6.21 9.72zm-10.68-3.45c3.17 0 5.24-1.93 5.24-4.76s-2-4.75-5.31-4.75h-7v9.51zm1.1 19.57c4 0 6.14-2.27 6.14-5.51 0-3.45-2.35-5.51-6.14-5.51h-8.13v11zM84.43 70h-5.17v15.91H67.68V37.67H86c12.13 0 19.23 6.34 19.23 16.33 0 6.62-3.24 11.51-9.09 13.72l11 18.19H93.46zm2.34-9.23c4.27 0 6.62-2.14 6.62-6.21s-2.21-6.41-6.69-6.41h-7.44v12.61zm61.55 17.15l-2.9 8h-12.2l18.61-48.24H165l18.67 48.24h-12.4l-2.9-8zm12.82-20.13c-1.52-4-2.62-7-2.69-7.1h-.21c-.07.07-1.17 3-2.69 7l-3.44 9.65h12.47zm61.68-.69h-.21c0 .07.14 6 .14 12.27v16.54h-11.58V37.67h11.72l20.54 28.26h.2c0-.07-.06-6.28-.06-11.51V37.67h11.58v48.24h-11.79zm84.7-19.43C321.93 37.67 333 47.45 333 62s-11.1 23.91-25.37 23.91H287V37.67zm-.62 37.49c7.17 0 14.41-3.65 14.41-13.16s-7.24-13.58-14.41-13.58h-8.34v26.74z"/></g></g></svg>